<?xml version="1.0" encoding="UTF-8" standalone="no"?>
<!DOCTYPE svg PUBLIC "-//W3C//DTD SVG 1.1//EN" "http://www.w3.org/Graphics/SVG/1.1/DTD/svg11.dtd">
<svg width="100%" height="100%" viewBox="0 0 164 164" version="1.1" xmlns="http://www.w3.org/2000/svg" xmlns:xlink="http://www.w3.org/1999/xlink" xml:space="preserve" xmlns:serif="http://www.serif.com/" style="fill-rule:evenodd;clip-rule:evenodd;stroke-linejoin:round;stroke-miterlimit:1.41421;">
    <g transform="matrix(1,0,0,1,-356,-388)">
        <g id="PWA-Icon" serif:id="PWA Icon" transform="matrix(2.92069,-2.8962e-16,-3.15919e-16,3.86003,139.228,113.278)">
            <rect x="47.514" y="50.964" width="109.563" height="82.901" style="fill:none;"/>
            <g id="icon" transform="matrix(-0.547542,-4.10824e-17,4.48128e-17,0.414298,377.161,48.4987)">
                <g id="Clock-Rim" serif:id="Clock Rim" transform="matrix(0.580778,2.44603e-32,2.44603e-32,0.580778,174.14,1.72079)">
                    <path d="M564.233,91.263L563.949,91.265L563.664,91.267L563.379,91.27L563.095,91.274L562.812,91.279L562.528,91.285L562.244,91.292L561.961,91.299L561.678,91.308L561.395,91.317L561.112,91.328L560.83,91.339L560.548,91.351L560.265,91.364L559.977,91.378L559.421,91.408L558.859,91.442L558.297,91.479L557.737,91.52L557.178,91.565L556.619,91.613L556.062,91.664L555.505,91.719L554.95,91.777L554.395,91.839L553.841,91.904L553.289,91.973L552.737,92.045L552.187,92.12L551.637,92.199L551.089,92.281L550.541,92.366L549.995,92.455L549.45,92.547L548.905,92.643L548.363,92.742L547.821,92.844L547.28,92.949L546.741,93.058L546.202,93.17L545.665,93.285L545.129,93.404L544.594,93.526L544.061,93.651L543.529,93.779L542.997,93.911L542.468,94.045L541.939,94.183L541.412,94.324L540.886,94.469L540.361,94.616L539.838,94.766L539.316,94.92L538.795,95.077L538.276,95.237L537.758,95.4L537.241,95.566L536.726,95.735L536.212,95.907L535.7,96.083L535.189,96.261L534.679,96.442L534.171,96.627L533.665,96.814L533.159,97.005L532.656,97.198L532.154,97.395L531.653,97.594L531.154,97.796L530.656,98.001L530.16,98.21L529.665,98.421L529.172,98.635L528.681,98.852L528.191,99.072L527.703,99.294L527.216,99.52L526.731,99.748L526.248,99.98L525.766,100.214L525.286,100.451L524.807,100.69L524.33,100.933L523.855,101.178L523.382,101.426L522.91,101.677L522.44,101.931L521.972,102.187L521.505,102.446L521.041,102.708L520.577,102.973L520.116,103.24L519.656,103.51L519.199,103.782L518.743,104.058L518.289,104.336L517.836,104.616L517.386,104.9L516.937,105.185L516.49,105.474L516.045,105.765L515.602,106.059L515.161,106.355L514.722,106.654L514.284,106.955L513.849,107.259L513.415,107.565L512.984,107.874L512.554,108.186L512.126,108.5L511.701,108.816L511.277,109.135L510.855,109.457L510.435,109.781L510.017,110.107L509.602,110.436L509.188,110.767L508.776,111.101L508.367,111.437L507.959,111.775L507.554,112.116L507.15,112.459L506.749,112.805L506.35,113.153L505.953,113.503L505.557,113.856L505.165,114.211L504.774,114.568L504.385,114.928L503.999,115.29L503.615,115.654L503.233,116.02L502.853,116.389L502.475,116.76L502.1,117.133L501.727,117.508L501.356,117.886L500.987,118.266L500.621,118.648L500.257,119.032L499.895,119.419L499.535,119.807L499.178,120.198L498.823,120.591L498.47,120.985L498.12,121.383L497.772,121.782L497.427,122.183L497.083,122.587L496.742,122.992L496.404,123.399L496.068,123.809L495.734,124.221L495.403,124.635L495.074,125.05L494.748,125.468L494.424,125.888L494.102,126.31L493.783,126.734L493.467,127.159L493.153,127.587L492.841,128.017L492.532,128.448L492.226,128.882L491.922,129.317L491.621,129.754L491.322,130.194L491.025,130.635L490.732,131.078L490.441,131.523L490.152,131.97L489.867,132.419L489.583,132.869L489.303,133.322L489.025,133.775L488.75,134.232L488.477,134.689L488.207,135.149L487.94,135.611L487.675,136.073L487.413,136.538L487.154,137.005L486.898,137.473L486.644,137.943L486.393,138.415L486.145,138.888L485.9,139.363L485.657,139.84L485.418,140.318L485.181,140.799L484.946,141.281L484.715,141.764L484.487,142.249L484.261,142.736L484.039,143.224L483.819,143.714L483.602,144.205L483.388,144.698L483.177,145.193L482.968,145.689L482.763,146.187L482.561,146.686L482.362,147.187L482.165,147.689L481.972,148.192L481.781,148.698L481.594,149.204L481.409,149.712L481.228,150.222L481.05,150.733L480.874,151.245L480.702,151.759L480.533,152.274L480.367,152.791L480.204,153.309L480.044,153.828L479.887,154.349L479.734,154.871L479.583,155.394L479.436,155.919L479.291,156.445L479.15,156.972L479.012,157.501L478.878,158.03L478.746,158.561L478.618,159.094L478.493,159.627L478.371,160.162L478.252,160.698L478.137,161.235L478.025,161.773L477.916,162.313L477.811,162.854L477.709,163.396L477.61,163.938L477.514,164.483L477.422,165.028L477.333,165.574L477.248,166.121L477.166,166.67L477.087,167.219L477.012,167.77L476.94,168.322L476.871,168.874L476.806,169.427L476.744,169.982L476.686,170.539L476.631,171.095L476.58,171.652L476.532,172.21L476.487,172.77L476.447,173.33L476.409,173.891L476.375,174.454L476.345,175.01L476.331,175.298L476.318,175.58L476.306,175.863L476.295,176.145L476.284,176.428L476.275,176.71L476.267,176.994L476.259,177.277L476.252,177.561L476.246,177.844L476.241,178.129L476.237,178.413L476.234,178.696L476.232,178.981L476.231,179.266L476.23,179.551L476.231,179.835L476.232,180.121L476.234,180.405L476.237,180.688L476.241,180.972L476.246,181.257L476.252,181.541L476.259,181.825L476.267,182.108L476.275,182.391L476.284,182.673L476.295,182.956L476.306,183.239L476.318,183.521L476.331,183.804L476.345,184.091L476.375,184.648L476.409,185.21L476.447,185.771L476.487,186.331L476.532,186.891L476.58,187.45L476.631,188.007L476.686,188.563L476.744,189.119L476.806,189.674L476.871,190.228L476.94,190.78L477.012,191.332L477.087,191.882L477.166,192.432L477.248,192.98L477.333,193.528L477.422,194.074L477.514,194.619L477.61,195.163L477.709,195.706L477.811,196.248L477.916,196.788L478.025,197.328L478.137,197.866L478.252,198.403L478.371,198.94L478.493,199.474L478.618,200.008L478.746,200.541L478.878,201.071L479.012,201.601L479.15,202.13L479.291,202.657L479.436,203.183L479.583,203.708L479.734,204.231L479.887,204.753L480.044,205.274L480.204,205.793L480.367,206.311L480.533,206.827L480.702,207.342L480.874,207.856L481.05,208.369L481.228,208.88L481.409,209.389L481.594,209.897L481.781,210.404L481.972,210.909L482.165,211.413L482.362,211.915L482.561,212.415L482.763,212.915L482.968,213.413L483.177,213.909L483.388,214.403L483.602,214.896L483.819,215.387L484.039,215.878L484.261,216.366L484.487,216.853L484.715,217.338L484.946,217.821L485.181,218.303L485.418,218.783L485.657,219.262L485.9,219.738L486.145,220.213L486.393,220.687L486.644,221.159L486.898,221.629L487.154,222.097L487.413,222.564L487.675,223.028L487.94,223.491L488.207,223.952L488.477,224.412L488.75,224.87L489.025,225.326L489.303,225.78L489.583,226.232L489.867,226.683L490.153,227.132L490.441,227.578L490.732,228.023L491.026,228.466L491.322,228.908L491.621,229.347L491.922,229.784L492.226,230.22L492.532,230.653L492.841,231.085L493.153,231.515L493.467,231.943L493.783,232.368L494.102,232.792L494.424,233.214L494.748,233.634L495.074,234.051L495.403,234.467L495.734,234.88L496.068,235.292L496.404,235.702L496.743,236.11L497.083,236.515L497.427,236.919L497.772,237.32L498.12,237.719L498.47,238.116L498.823,238.511L499.178,238.904L499.535,239.294L499.895,239.683L500.257,240.07L500.621,240.454L500.987,240.836L501.356,241.216L501.727,241.593L502.1,241.969L502.475,242.342L502.853,242.713L503.233,243.081L503.615,243.448L503.999,243.812L504.385,244.174L504.774,244.534L505.165,244.891L505.557,245.245L505.953,245.598L506.35,245.949L506.749,246.296L507.15,246.642L507.554,246.985L507.959,247.326L508.367,247.665L508.776,248.001L509.188,248.334L509.602,248.666L510.017,248.994L510.435,249.321L510.855,249.645L511.277,249.966L511.7,250.285L512.126,250.602L512.554,250.916L512.984,251.227L513.415,251.536L513.849,251.843L514.284,252.147L514.722,252.448L515.161,252.747L515.602,253.043L516.045,253.337L516.491,253.628L516.938,253.916L517.386,254.202L517.836,254.485L518.288,254.766L518.743,255.044L519.199,255.319L519.657,255.592L520.116,255.862L520.577,256.129L521.04,256.393L521.505,256.655L521.972,256.915L522.44,257.171L522.91,257.424L523.382,257.675L523.855,257.923L524.331,258.169L524.807,258.411L525.286,258.651L525.766,258.888L526.247,259.122L526.731,259.353L527.216,259.582L527.703,259.807L528.191,260.03L528.681,260.25L529.173,260.467L529.666,260.681L530.16,260.892L530.656,261.1L531.154,261.305L531.653,261.508L532.154,261.707L532.656,261.903L533.159,262.097L533.665,262.287L534.171,262.475L534.679,262.659L535.189,262.84L535.7,263.019L536.212,263.194L536.726,263.367L537.241,263.536L537.758,263.702L538.276,263.865L538.795,264.025L539.315,264.181L539.838,264.335L540.362,264.486L540.885,264.633L541.412,264.777L541.939,264.918L542.467,265.056L542.997,265.191L543.529,265.322L544.061,265.451L544.594,265.576L545.129,265.698L545.665,265.816L546.202,265.931L546.741,266.043L547.28,266.152L547.821,266.258L548.363,266.36L548.905,266.459L549.449,266.554L549.995,266.646L550.541,266.735L551.089,266.821L551.637,266.903L552.186,266.982L552.737,267.057L553.289,267.129L553.841,267.198L554.395,267.263L554.949,267.324L555.505,267.383L556.062,267.438L556.619,267.489L557.178,267.537L557.737,267.581L558.297,267.622L558.859,267.659L559.42,267.693L559.977,267.723L560.266,267.738L560.547,267.751L560.83,267.763L561.113,267.774L561.394,267.784L561.678,267.794L561.962,267.802L562.244,267.81L562.528,267.816L562.811,267.822L563.095,267.827L563.379,267.831L563.663,267.835L563.949,267.837L564.233,267.838L564.518,267.839L564.802,267.838L565.087,267.837L565.372,267.835L565.656,267.831L565.941,267.827L566.224,267.822L566.508,267.816L566.792,267.81L567.074,267.802L567.357,267.794L567.641,267.784L567.923,267.774L568.206,267.763L568.488,267.751L568.77,267.738L569.059,267.723L569.615,267.693L570.177,267.659L570.738,267.622L571.299,267.581L571.858,267.537L572.416,267.489L572.974,267.438L573.531,267.383L574.086,267.324L574.641,267.263L575.194,267.198L575.747,267.129L576.299,267.057L576.85,266.982L577.399,266.903L577.947,266.821L578.495,266.735L579.041,266.646L579.586,266.554L580.13,266.459L580.673,266.36L581.215,266.258L581.756,266.152L582.295,266.043L582.833,265.931L583.371,265.816L583.906,265.698L584.441,265.576L584.975,265.451L585.507,265.322L586.038,265.191L586.568,265.056L587.097,264.918L587.624,264.777L588.15,264.633L588.674,264.486L589.197,264.335L589.72,264.181L590.241,264.025L590.76,263.865L591.278,263.702L591.794,263.536L592.31,263.367L592.824,263.194L593.336,263.019L593.847,262.84L594.356,262.659L594.864,262.475L595.371,262.287L595.876,262.097L596.38,261.903L596.882,261.707L597.383,261.508L597.882,261.305L598.38,261.1L598.876,260.892L599.37,260.681L599.863,260.467L600.355,260.25L600.845,260.03L601.333,259.807L601.819,259.582L602.304,259.353L602.788,259.122L603.27,258.888L603.75,258.651L604.228,258.411L604.705,258.169L605.18,257.923L605.654,257.675L606.126,257.424L606.596,257.171L607.064,256.915L607.53,256.655L607.995,256.393L608.458,256.129L608.92,255.862L609.379,255.592L609.837,255.319L610.293,255.044L610.747,254.766L611.2,254.485L611.65,254.202L612.098,253.916L612.545,253.628L612.991,253.337L613.434,253.043L613.874,252.747L614.314,252.448L614.752,252.146L615.187,251.843L615.62,251.536L616.052,251.227L616.482,250.916L616.909,250.602L617.335,250.285L617.759,249.966L618.18,249.645L618.6,249.321L619.018,248.994L619.434,248.666L619.848,248.334L620.26,248.001L620.669,247.665L621.076,247.326L621.482,246.985L621.886,246.642L622.287,246.296L622.686,245.949L623.083,245.598L623.478,245.246L623.871,244.891L624.262,244.533L624.65,244.174L625.037,243.812L625.421,243.448L625.803,243.082L626.183,242.713L626.56,242.342L626.936,241.969L627.309,241.593L627.68,241.216L628.048,240.836L628.415,240.454L628.779,240.069L629.141,239.683L629.5,239.295L629.858,238.904L630.213,238.511L630.565,238.116L630.916,237.719L631.264,237.32L631.609,236.918L631.952,236.515L632.293,236.11L632.632,235.702L632.968,235.292L633.301,234.881L633.633,234.467L633.961,234.051L634.288,233.634L634.612,233.214L634.933,232.792L635.252,232.368L635.569,231.942L635.883,231.515L636.194,231.085L636.503,230.653L636.81,230.22L637.114,229.784L637.415,229.347L637.714,228.908L638.01,228.466L638.304,228.023L638.595,227.578L638.883,227.132L639.169,226.683L639.452,226.232L639.733,225.78L640.011,225.326L640.286,224.87L640.559,224.412L640.829,223.953L641.096,223.491L641.361,223.028L641.622,222.564L641.881,222.097L642.138,221.629L642.391,221.159L642.642,220.687L642.891,220.213L643.136,219.738L643.378,219.262L643.618,218.783L643.855,218.302L644.089,217.821L644.32,217.338L644.549,216.853L644.774,216.366L644.997,215.877L645.217,215.388L645.434,214.896L645.648,214.403L645.859,213.908L646.067,213.412L646.272,212.915L646.475,212.416L646.674,211.915L646.871,211.413L647.064,210.909L647.254,210.404L647.442,209.897L647.626,209.389L647.808,208.88L647.986,208.369L648.161,207.856L648.334,207.342L648.503,206.827L648.669,206.311L648.832,205.793L648.992,205.273L649.148,204.753L649.302,204.231L649.453,203.707L649.6,203.183L649.744,202.657L649.885,202.129L650.023,201.601L650.158,201.071L650.289,200.54L650.418,200.008L650.543,199.474L650.665,198.94L650.783,198.404L650.898,197.866L651.011,197.328L651.119,196.788L651.225,196.248L651.327,195.706L651.426,195.163L651.521,194.619L651.613,194.074L651.702,193.528L651.788,192.98L651.87,192.432L651.949,191.882L652.024,191.332L652.096,190.78L652.165,190.227L652.23,189.674L652.291,189.119L652.35,188.564L652.405,188.007L652.456,187.45L652.504,186.891L652.548,186.332L652.589,185.771L652.627,185.21L652.66,184.648L652.69,184.092L652.705,183.803L652.718,183.521L652.73,183.239L652.741,182.957L652.751,182.673L652.761,182.391L652.769,182.108L652.777,181.825L652.784,181.541L652.789,181.257L652.794,180.973L652.798,180.689L652.802,180.405L652.804,180.12L652.805,179.836L652.806,179.551L652.805,179.266L652.804,178.982L652.802,178.697L652.798,178.412L652.794,178.128L652.789,177.845L652.784,177.561L652.777,177.277L652.769,176.994L652.761,176.711L652.751,176.428L652.741,176.145L652.73,175.863L652.718,175.581L652.705,175.298L652.69,175.01L652.66,174.454L652.627,173.891L652.589,173.33L652.548,172.77L652.504,172.211L652.456,171.652L652.405,171.095L652.35,170.538L652.291,169.983L652.23,169.428L652.165,168.874L652.096,168.322L652.024,167.77L651.949,167.219L651.87,166.67L651.788,166.122L651.702,165.574L651.613,165.028L651.521,164.483L651.426,163.938L651.327,163.396L651.225,162.854L651.119,162.313L651.011,161.774L650.898,161.235L650.783,160.698L650.665,160.162L650.543,159.627L650.418,159.094L650.289,158.561L650.158,158.03L650.023,157.501L649.885,156.972L649.744,156.445L649.6,155.919L649.453,155.394L649.302,154.871L649.148,154.349L648.992,153.828L648.832,153.309L648.669,152.791L648.503,152.274L648.334,151.759L648.161,151.245L647.986,150.733L647.808,150.222L647.626,149.712L647.442,149.204L647.254,148.698L647.064,148.192L646.871,147.689L646.674,147.187L646.475,146.686L646.272,146.187L646.067,145.689L645.859,145.193L645.648,144.698L645.434,144.205L645.217,143.714L644.997,143.224L644.774,142.736L644.549,142.249L644.32,141.764L644.089,141.281L643.855,140.799L643.618,140.319L643.378,139.84L643.136,139.363L642.89,138.888L642.642,138.415L642.391,137.943L642.138,137.473L641.881,137.005L641.622,136.538L641.361,136.074L641.096,135.61L640.829,135.149L640.559,134.689L640.286,134.232L640.011,133.776L639.733,133.322L639.452,132.869L639.169,132.419L638.883,131.97L638.595,131.523L638.304,131.078L638.01,130.635L637.714,130.194L637.415,129.755L637.114,129.317L636.81,128.882L636.503,128.448L636.194,128.017L635.883,127.587L635.569,127.159L635.252,126.734L634.933,126.31L634.612,125.888L634.288,125.468L633.961,125.05L633.633,124.635L633.301,124.221L632.968,123.809L632.632,123.4L632.293,122.992L631.953,122.587L631.609,122.183L631.264,121.782L630.916,121.383L630.565,120.985L630.213,120.591L629.858,120.198L629.5,119.807L629.141,119.418L628.779,119.032L628.415,118.648L628.048,118.266L627.68,117.886L627.309,117.508L626.936,117.133L626.56,116.76L626.183,116.389L625.803,116.02L625.421,115.654L625.037,115.29L624.65,114.928L624.262,114.568L623.871,114.211L623.478,113.856L623.083,113.503L622.686,113.153L622.287,112.805L621.886,112.459L621.482,112.116L621.076,111.775L620.669,111.437L620.259,111.101L619.848,110.767L619.434,110.436L619.018,110.107L618.6,109.781L618.181,109.457L617.759,109.135L617.335,108.816L616.909,108.5L616.482,108.186L616.052,107.874L615.62,107.565L615.187,107.259L614.751,106.955L614.314,106.654L613.875,106.355L613.433,106.059L612.99,105.765L612.546,105.474L612.099,105.185L611.65,104.9L611.2,104.616L610.747,104.336L610.293,104.058L609.837,103.782L609.379,103.51L608.92,103.24L608.458,102.973L607.995,102.708L607.53,102.446L607.064,102.187L606.596,101.931L606.126,101.677L605.654,101.426L605.18,101.178L604.705,100.933L604.228,100.69L603.75,100.451L603.27,100.214L602.788,99.98L602.304,99.748L601.819,99.52L601.333,99.294L600.844,99.072L600.355,98.852L599.863,98.635L599.37,98.421L598.876,98.21L598.379,98.001L597.882,97.796L597.383,97.594L596.882,97.395L596.38,97.198L595.876,97.005L595.371,96.814L594.864,96.627L594.356,96.442L593.847,96.261L593.336,96.083L592.824,95.907L592.31,95.735L591.794,95.566L591.278,95.4L590.76,95.237L590.24,95.077L589.72,94.92L589.198,94.766L588.674,94.616L588.15,94.469L587.624,94.324L587.096,94.183L586.568,94.045L586.038,93.911L585.507,93.779L584.975,93.651L584.441,93.526L583.907,93.404L583.371,93.285L582.833,93.17L582.295,93.058L581.756,92.949L581.215,92.844L580.673,92.742L580.13,92.643L579.586,92.547L579.041,92.455L578.495,92.366L577.947,92.281L577.399,92.199L576.849,92.12L576.299,92.045L575.747,91.973L575.194,91.904L574.641,91.839L574.086,91.777L573.531,91.719L572.974,91.664L572.417,91.613L571.858,91.565L571.299,91.52L570.738,91.479L570.177,91.442L569.615,91.408L569.059,91.378L568.77,91.364L568.488,91.351L568.206,91.339L567.924,91.328L567.64,91.317L567.358,91.308L567.075,91.299L566.792,91.292L566.508,91.285L566.224,91.279L565.941,91.274L565.656,91.27L565.372,91.267L565.087,91.265L564.803,91.263L564.518,91.263L564.233,91.263ZM564.775,99.877L565.033,99.878L565.29,99.88L565.547,99.883L565.804,99.887L566.06,99.891L566.317,99.896L566.573,99.903L566.829,99.909L567.085,99.917L567.34,99.926L567.596,99.935L567.851,99.945L568.106,99.956L568.361,99.968L568.615,99.98L569.124,100.008L569.631,100.038L570.138,100.072L570.644,100.109L571.149,100.149L571.654,100.192L572.157,100.239L572.659,100.288L573.161,100.341L573.661,100.396L574.161,100.455L574.66,100.517L575.157,100.582L575.654,100.65L576.15,100.721L576.645,100.795L577.138,100.872L577.631,100.953L578.123,101.036L578.614,101.122L579.104,101.211L579.592,101.303L580.08,101.398L580.567,101.496L581.052,101.597L581.536,101.701L582.02,101.808L582.502,101.918L582.983,102.031L583.463,102.147L583.942,102.265L584.42,102.387L584.896,102.511L585.372,102.638L585.846,102.768L586.319,102.901L586.791,103.037L587.262,103.175L587.731,103.317L588.2,103.461L588.667,103.608L589.132,103.758L589.597,103.91L590.06,104.066L590.522,104.224L590.983,104.385L591.443,104.548L591.901,104.714L592.358,104.883L592.813,105.055L593.267,105.23L593.72,105.407L594.172,105.586L594.622,105.769L595.071,105.954L595.518,106.142L595.964,106.332L596.409,106.525L596.852,106.721L597.294,106.919L597.734,107.12L598.173,107.324L598.611,107.53L599.047,107.738L599.482,107.949L599.915,108.163L600.347,108.379L600.777,108.598L601.205,108.82L601.633,109.043L602.058,109.27L602.482,109.499L602.905,109.73L603.326,109.964L603.745,110.2L604.163,110.439L604.579,110.68L604.994,110.924L605.407,111.17L605.819,111.418L606.229,111.669L606.637,111.922L607.043,112.178L607.448,112.436L607.852,112.696L608.253,112.959L608.653,113.224L609.052,113.491L609.448,113.761L609.843,114.033L610.236,114.308L610.627,114.584L611.017,114.863L611.405,115.144L611.791,115.428L612.176,115.714L612.558,116.002L612.939,116.292L613.318,116.584L613.695,116.879L614.071,117.176L614.444,117.475L614.816,117.776L615.186,118.08L615.554,118.385L615.92,118.693L616.284,119.003L616.647,119.315L617.007,119.629L617.366,119.946L617.723,120.264L618.077,120.585L618.43,120.907L618.781,121.232L619.13,121.559L619.477,121.888L619.822,122.219L620.165,122.552L620.506,122.887L620.845,123.224L621.182,123.563L621.517,123.904L621.85,124.247L622.181,124.592L622.51,124.939L622.837,125.288L623.161,125.638L623.484,125.991L623.804,126.346L624.123,126.703L624.439,127.061L624.753,127.422L625.066,127.784L625.375,128.149L625.683,128.515L625.989,128.883L626.292,129.253L626.594,129.624L626.893,129.998L627.19,130.373L627.484,130.751L627.777,131.13L628.067,131.51L628.355,131.893L628.641,132.277L628.924,132.664L629.205,133.051L629.484,133.441L629.761,133.833L630.035,134.226L630.308,134.621L630.577,135.017L630.845,135.415L631.11,135.815L631.372,136.217L631.633,136.62L631.891,137.025L632.146,137.432L632.4,137.84L632.651,138.25L632.899,138.661L633.145,139.074L633.389,139.489L633.63,139.905L633.869,140.323L634.105,140.743L634.339,141.164L634.57,141.586L634.799,142.01L635.025,142.436L635.249,142.863L635.47,143.292L635.689,143.722L635.905,144.154L636.119,144.587L636.33,145.022L636.539,145.458L636.745,145.895L636.949,146.334L637.149,146.775L637.348,147.216L637.543,147.66L637.736,148.104L637.927,148.55L638.115,148.998L638.3,149.447L638.482,149.897L638.662,150.348L638.839,150.801L639.013,151.255L639.185,151.711L639.354,152.168L639.521,152.626L639.684,153.086L639.845,153.546L640.003,154.008L640.158,154.472L640.311,154.936L640.461,155.402L640.608,155.869L640.752,156.337L640.893,156.807L641.032,157.277L641.167,157.749L641.3,158.222L641.43,158.697L641.558,159.172L641.682,159.649L641.803,160.127L641.922,160.605L642.038,161.085L642.15,161.567L642.26,162.049L642.367,162.532L642.471,163.017L642.572,163.502L642.67,163.989L642.765,164.476L642.858,164.965L642.947,165.455L643.033,165.946L643.116,166.437L643.196,166.93L643.273,167.424L643.348,167.919L643.419,168.415L643.487,168.911L643.552,169.409L643.613,169.908L643.672,170.407L643.728,170.908L643.78,171.409L643.83,171.912L643.876,172.415L643.92,172.919L643.96,173.424L643.997,173.93L644.03,174.437L644.061,174.945L644.088,175.453L644.101,175.708L644.113,175.963L644.124,176.218L644.134,176.473L644.143,176.728L644.151,176.984L644.159,177.24L644.166,177.496L644.172,177.752L644.177,178.008L644.182,178.265L644.186,178.522L644.188,178.779L644.191,179.036L644.192,179.293L644.192,179.551L644.192,179.808L644.191,180.066L644.188,180.323L644.186,180.58L644.182,180.837L644.177,181.093L644.172,181.35L644.166,181.606L644.159,181.862L644.151,182.118L644.143,182.373L644.134,182.629L644.124,182.884L644.113,183.139L644.101,183.394L644.088,183.648L644.061,184.157L644.03,184.664L643.997,185.171L643.96,185.677L643.92,186.182L643.876,186.686L643.83,187.19L643.78,187.692L643.728,188.194L643.672,188.694L643.613,189.194L643.552,189.693L643.487,190.19L643.419,190.687L643.348,191.183L643.273,191.678L643.196,192.171L643.116,192.664L643.033,193.156L642.947,193.647L642.858,194.137L642.765,194.625L642.67,195.113L642.572,195.599L642.471,196.085L642.367,196.569L642.26,197.053L642.15,197.535L642.038,198.016L641.922,198.496L641.803,198.975L641.682,199.453L641.558,199.929L641.43,200.405L641.3,200.879L641.167,201.352L641.032,201.824L640.893,202.295L640.752,202.764L640.608,203.233L640.461,203.7L640.311,204.165L640.158,204.63L640.003,205.093L639.845,205.555L639.684,206.016L639.521,206.476L639.354,206.934L639.185,207.391L639.013,207.846L638.839,208.3L638.662,208.753L638.482,209.205L638.3,209.655L638.115,210.104L637.927,210.551L637.736,210.997L637.543,211.442L637.348,211.885L637.149,212.327L636.949,212.767L636.745,213.206L636.539,213.644L636.33,214.08L636.119,214.515L635.905,214.948L635.689,215.38L635.47,215.81L635.249,216.238L635.025,216.666L634.799,217.091L634.57,217.515L634.339,217.938L634.105,218.359L633.869,218.778L633.63,219.196L633.389,219.612L633.145,220.027L632.899,220.44L632.651,220.852L632.4,221.262L632.146,221.67L631.891,222.076L631.633,222.481L631.372,222.885L631.11,223.286L630.845,223.686L630.577,224.085L630.308,224.481L630.035,224.876L629.761,225.269L629.484,225.66L629.205,226.05L628.924,226.438L628.641,226.824L628.355,227.209L628.067,227.591L627.777,227.972L627.484,228.351L627.19,228.728L626.893,229.104L626.594,229.477L626.292,229.849L625.989,230.219L625.683,230.587L625.375,230.953L625.066,231.317L624.753,231.68L624.439,232.04L624.123,232.399L623.804,232.756L623.484,233.11L623.161,233.463L622.837,233.814L622.51,234.163L622.181,234.51L621.85,234.855L621.517,235.198L621.182,235.539L620.845,235.878L620.506,236.215L620.165,236.55L619.822,236.883L619.477,237.214L619.13,237.543L618.781,237.869L618.43,238.194L618.077,238.517L617.723,238.837L617.366,239.156L617.007,239.472L616.647,239.786L616.284,240.098L615.92,240.408L615.554,240.716L615.186,241.022L614.816,241.325L614.444,241.627L614.071,241.926L613.695,242.223L613.318,242.517L612.939,242.81L612.558,243.1L612.176,243.388L611.791,243.674L611.405,243.957L611.017,244.238L610.627,244.517L610.236,244.794L609.843,245.068L609.448,245.34L609.052,245.61L608.653,245.878L608.253,246.143L607.852,246.405L607.448,246.666L607.043,246.924L606.637,247.179L606.229,247.433L605.819,247.684L605.407,247.932L604.994,248.178L604.579,248.422L604.163,248.663L603.745,248.902L603.326,249.138L602.905,249.372L602.482,249.603L602.058,249.832L601.633,250.058L601.205,250.282L600.777,250.503L600.347,250.722L599.915,250.938L599.482,251.152L599.047,251.363L598.611,251.572L598.173,251.778L597.734,251.981L597.294,252.182L596.852,252.381L596.409,252.576L595.964,252.769L595.518,252.96L595.071,253.148L594.622,253.333L594.172,253.515L593.72,253.695L593.267,253.872L592.813,254.046L592.358,254.218L591.901,254.387L591.443,254.553L590.983,254.717L590.522,254.878L590.06,255.036L589.597,255.191L589.132,255.344L588.667,255.494L588.2,255.641L587.731,255.785L587.262,255.926L586.791,256.065L586.319,256.2L585.846,256.333L585.372,256.463L584.896,256.591L584.42,256.715L583.942,256.836L583.463,256.955L582.983,257.071L582.502,257.183L582.02,257.293L581.536,257.4L581.052,257.504L580.567,257.605L580.08,257.703L579.592,257.798L579.104,257.891L578.614,257.98L578.123,258.066L577.631,258.149L577.138,258.229L576.645,258.306L576.15,258.38L575.654,258.452L575.157,258.52L574.66,258.584L574.161,258.646L573.661,258.705L573.161,258.761L572.659,258.813L572.157,258.863L571.654,258.909L571.149,258.953L570.644,258.993L570.138,259.03L569.631,259.063L569.124,259.094L568.615,259.121L568.361,259.134L568.106,259.146L567.851,259.157L567.596,259.167L567.34,259.176L567.085,259.184L566.829,259.192L566.573,259.199L566.317,259.205L566.06,259.21L565.804,259.215L565.547,259.219L565.29,259.221L565.033,259.223L564.775,259.225L564.518,259.225L564.26,259.225L564.003,259.223L563.746,259.221L563.489,259.219L563.232,259.215L562.975,259.21L562.719,259.205L562.463,259.199L562.207,259.192L561.951,259.184L561.695,259.176L561.44,259.167L561.185,259.157L560.93,259.146L560.675,259.134L560.42,259.121L559.912,259.094L559.404,259.063L558.897,259.03L558.391,258.993L557.886,258.953L557.382,258.909L556.879,258.863L556.376,258.813L555.875,258.761L555.374,258.705L554.875,258.646L554.376,258.584L553.878,258.52L553.382,258.452L552.886,258.38L552.391,258.306L551.897,258.229L551.404,258.149L550.913,258.066L550.422,257.98L549.932,257.891L549.443,257.798L548.956,257.703L548.469,257.605L547.984,257.504L547.499,257.4L547.016,257.293L546.534,257.183L546.052,257.071L545.572,256.955L545.094,256.836L544.616,256.715L544.139,256.591L543.664,256.463L543.19,256.333L542.716,256.2L542.245,256.065L541.774,255.926L541.304,255.785L540.836,255.641L540.369,255.494L539.903,255.344L539.439,255.191L538.975,255.036L538.513,254.878L538.053,254.717L537.593,254.553L537.135,254.387L536.678,254.218L536.223,254.046L535.768,253.872L535.315,253.695L534.864,253.515L534.414,253.333L533.965,253.148L533.517,252.96L533.071,252.769L532.627,252.576L532.183,252.381L531.742,252.182L531.301,251.981L530.862,251.778L530.425,251.572L529.989,251.363L529.554,251.152L529.121,250.938L528.689,250.722L528.259,250.503L527.83,250.282L527.403,250.058L526.977,249.832L526.553,249.603L526.131,249.372L525.71,249.138L525.29,248.902L524.872,248.663L524.456,248.422L524.041,248.178L523.628,247.932L523.217,247.684L522.807,247.433L522.399,247.179L521.992,246.924L521.587,246.666L521.184,246.405L520.782,246.143L520.382,245.878L519.984,245.61L519.588,245.34L519.193,245.068L518.8,244.794L518.408,244.517L518.019,244.238L517.631,243.957L517.244,243.674L516.86,243.388L516.477,243.1L516.097,242.81L515.718,242.517L515.34,242.223L514.965,241.926L514.591,241.627L514.22,241.325L513.85,241.022L513.482,240.716L513.116,240.408L512.751,240.098L512.389,239.786L512.028,239.472L511.67,239.156L511.313,238.837L510.958,238.517L510.605,238.194L510.255,237.869L509.906,237.543L509.559,237.214L509.214,236.883L508.871,236.55L508.53,236.215L508.191,235.878L507.854,235.539L507.519,235.198L507.186,234.855L506.855,234.51L506.526,234.163L506.199,233.814L505.874,233.463L505.552,233.11L505.231,232.756L504.913,232.399L504.596,232.04L504.282,231.68L503.97,231.317L503.66,230.953L503.352,230.587L503.047,230.219L502.743,229.849L502.442,229.477L502.143,229.104L501.846,228.728L501.551,228.351L501.259,227.972L500.969,227.591L500.681,227.209L500.395,226.824L500.111,226.438L499.83,226.05L499.551,225.66L499.275,225.269L499,224.876L498.728,224.481L498.458,224.085L498.191,223.686L497.926,223.286L497.663,222.885L497.403,222.481L497.145,222.076L496.889,221.67L496.636,221.262L496.385,220.852L496.137,220.44L495.891,220.027L495.647,219.612L495.406,219.196L495.167,218.778L494.931,218.359L494.697,217.938L494.466,217.515L494.237,217.091L494.011,216.666L493.787,216.238L493.565,215.81L493.347,215.38L493.13,214.948L492.916,214.515L492.705,214.08L492.497,213.644L492.291,213.206L492.087,212.767L491.886,212.327L491.688,211.885L491.492,211.442L491.299,210.997L491.109,210.551L490.921,210.104L490.736,209.655L490.554,209.205L490.374,208.753L490.197,208.3L490.022,207.846L489.85,207.391L489.681,206.934L489.515,206.476L489.352,206.016L489.191,205.555L489.033,205.093L488.877,204.63L488.725,204.165L488.575,203.7L488.428,203.233L488.284,202.764L488.142,202.295L488.004,201.824L487.868,201.352L487.735,200.879L487.605,200.405L487.478,199.929L487.354,199.453L487.232,198.975L487.114,198.496L486.998,198.016L486.885,197.535L486.775,197.053L486.668,196.569L486.564,196.085L486.463,195.599L486.365,195.113L486.27,194.625L486.178,194.137L486.089,193.647L486.003,193.156L485.92,192.664L485.839,192.171L485.762,191.678L485.688,191.183L485.617,190.687L485.549,190.19L485.484,189.693L485.422,189.194L485.363,188.694L485.308,188.194L485.255,187.692L485.206,187.19L485.159,186.686L485.116,186.182L485.076,185.677L485.039,185.171L485.005,184.664L484.975,184.157L484.947,183.648L484.935,183.394L484.923,183.139L484.912,182.884L484.902,182.629L484.893,182.373L484.884,182.118L484.876,181.862L484.87,181.606L484.863,181.35L484.858,181.093L484.854,180.837L484.85,180.58L484.847,180.323L484.845,180.066L484.844,179.808L484.844,179.551L484.844,179.293L484.845,179.036L484.847,178.779L484.85,178.522L484.854,178.265L484.858,178.008L484.863,177.752L484.87,177.496L484.876,177.24L484.884,176.984L484.893,176.728L484.902,176.473L484.912,176.218L484.923,175.963L484.935,175.708L484.947,175.453L484.975,174.945L485.005,174.437L485.039,173.93L485.076,173.424L485.116,172.919L485.159,172.415L485.206,171.912L485.255,171.409L485.308,170.908L485.363,170.407L485.422,169.908L485.484,169.409L485.549,168.911L485.617,168.415L485.688,167.919L485.762,167.424L485.839,166.93L485.92,166.437L486.003,165.946L486.089,165.455L486.178,164.965L486.27,164.476L486.365,163.989L486.463,163.502L486.564,163.017L486.668,162.532L486.775,162.049L486.885,161.567L486.998,161.085L487.114,160.605L487.232,160.127L487.354,159.649L487.478,159.172L487.605,158.697L487.735,158.222L487.868,157.749L488.004,157.277L488.142,156.807L488.284,156.337L488.428,155.869L488.575,155.402L488.725,154.936L488.877,154.472L489.033,154.008L489.191,153.546L489.352,153.086L489.515,152.626L489.681,152.168L489.85,151.711L490.022,151.255L490.197,150.801L490.374,150.348L490.554,149.897L490.736,149.447L490.921,148.998L491.109,148.55L491.299,148.104L491.492,147.66L491.688,147.216L491.886,146.775L492.087,146.334L492.291,145.895L492.497,145.458L492.705,145.022L492.916,144.587L493.13,144.154L493.347,143.722L493.565,143.292L493.787,142.863L494.011,142.436L494.237,142.01L494.466,141.586L494.697,141.164L494.931,140.743L495.167,140.323L495.406,139.905L495.647,139.489L495.891,139.074L496.137,138.661L496.385,138.25L496.636,137.84L496.889,137.432L497.145,137.025L497.403,136.62L497.663,136.217L497.926,135.815L498.191,135.415L498.458,135.017L498.728,134.621L499,134.226L499.275,133.833L499.551,133.441L499.83,133.051L500.111,132.664L500.395,132.277L500.681,131.893L500.969,131.51L501.259,131.13L501.551,130.751L501.846,130.373L502.143,129.998L502.442,129.624L502.743,129.253L503.047,128.883L503.352,128.515L503.66,128.149L503.97,127.784L504.282,127.422L504.596,127.061L504.913,126.703L505.231,126.346L505.552,125.991L505.874,125.638L506.199,125.288L506.526,124.939L506.855,124.592L507.186,124.247L507.519,123.904L507.854,123.563L508.191,123.224L508.53,122.887L508.871,122.552L509.214,122.219L509.559,121.888L509.906,121.559L510.255,121.232L510.605,120.907L510.958,120.585L511.313,120.264L511.67,119.946L512.028,119.629L512.389,119.315L512.751,119.003L513.116,118.693L513.482,118.385L513.85,118.08L514.22,117.776L514.591,117.475L514.965,117.176L515.34,116.879L515.718,116.584L516.097,116.292L516.477,116.002L516.86,115.714L517.244,115.428L517.631,115.144L518.019,114.863L518.408,114.584L518.8,114.308L519.193,114.033L519.588,113.761L519.984,113.491L520.382,113.224L520.782,112.959L521.184,112.696L521.587,112.436L521.992,112.178L522.399,111.922L522.807,111.669L523.217,111.418L523.628,111.17L524.041,110.924L524.456,110.68L524.872,110.439L525.29,110.2L525.71,109.964L526.131,109.73L526.553,109.499L526.977,109.27L527.403,109.043L527.83,108.82L528.259,108.598L528.689,108.379L529.121,108.163L529.554,107.949L529.989,107.738L530.425,107.53L530.862,107.324L531.301,107.12L531.742,106.919L532.183,106.721L532.627,106.525L533.071,106.332L533.517,106.142L533.965,105.954L534.414,105.769L534.864,105.586L535.315,105.407L535.768,105.23L536.223,105.055L536.678,104.883L537.135,104.714L537.593,104.548L538.053,104.385L538.513,104.224L538.975,104.066L539.439,103.91L539.903,103.758L540.369,103.608L540.836,103.461L541.304,103.317L541.774,103.175L542.245,103.037L542.716,102.901L543.19,102.768L543.664,102.638L544.139,102.511L544.616,102.387L545.094,102.265L545.572,102.147L546.052,102.031L546.534,101.918L547.016,101.808L547.499,101.701L547.984,101.597L548.469,101.496L548.956,101.398L549.443,101.303L549.932,101.211L550.422,101.122L550.913,101.036L551.404,100.953L551.897,100.872L552.391,100.795L552.886,100.721L553.382,100.65L553.878,100.582L554.376,100.517L554.875,100.455L555.374,100.396L555.875,100.341L556.376,100.288L556.879,100.239L557.382,100.192L557.886,100.149L558.391,100.109L558.897,100.072L559.404,100.038L559.912,100.008L560.42,99.98L560.675,99.968L560.93,99.956L561.185,99.945L561.44,99.935L561.695,99.926L561.951,99.917L562.207,99.909L562.463,99.903L562.719,99.896L562.975,99.891L563.232,99.887L563.489,99.883L563.746,99.88L564.003,99.878L564.26,99.877L564.518,99.876L564.775,99.877Z" style="fill:white;"/>
                </g>
                <g id="Ticks" transform="matrix(-1.13232,-1.92004e-31,1.25578e-31,1.16378,1022.87,-449.121)">
                    <path d="M462.42,441.077C460.808,440.974 459.192,440.974 457.58,441.077L457.654,448.001C459.216,447.881 460.784,447.881 462.346,448.001L462.42,441.077ZM443.635,444.713C442.187,445.408 440.787,446.194 439.444,447.067L443.066,453.027C444.357,452.164 445.715,451.401 447.129,450.745L443.635,444.713ZM429.236,456.999C428.338,458.306 427.53,459.668 426.816,461.078L433.015,464.477C433.69,463.101 434.474,461.78 435.361,460.524L429.236,456.999ZM423.079,474.645C422.974,476.213 422.974,477.787 423.079,479.355L430.195,479.282C430.072,477.763 430.072,476.237 430.195,474.718L423.079,474.645ZM426.816,492.922C427.53,494.332 428.338,495.694 429.236,497.001L435.361,493.476C434.474,492.22 433.69,490.899 433.015,489.523L426.816,492.922ZM439.444,506.933C440.787,507.806 442.187,508.592 443.635,509.287L447.129,503.255C445.715,502.599 444.357,501.836 443.066,500.973L439.444,506.933ZM457.58,512.923C459.192,513.026 460.808,513.026 462.42,512.923L462.346,505.999C460.784,506.119 459.216,506.119 457.654,505.999L457.58,512.923ZM476.365,509.287C477.813,508.592 479.213,507.806 480.556,506.933L476.934,500.973C475.643,501.836 474.285,502.599 472.871,503.255L476.365,509.287ZM490.764,497.001C491.662,495.694 492.47,494.332 493.184,492.922L486.985,489.523C486.31,490.899 485.526,492.22 484.639,493.476L490.764,497.001ZM496.921,479.355C497.026,477.787 497.026,476.213 496.921,474.645L489.805,474.718C489.928,476.237 489.928,477.763 489.805,479.282L496.921,479.355ZM493.184,461.078C492.47,459.668 491.662,458.306 490.764,456.999L484.639,460.524C485.526,461.78 486.31,463.101 486.985,464.477L493.184,461.078ZM480.556,447.067C479.213,446.194 477.813,445.408 476.365,444.713L472.871,450.745C474.285,451.401 475.643,452.164 476.934,453.027L480.556,447.067Z" style="fill:white;"/>
                </g>
                <g transform="matrix(-0.625312,-1.06032e-31,6.74749e-32,0.625312,775.898,-187.62)">
                    <path d="M433.752,474L433.618,423C436.536,422.809 439.464,422.809 442.382,423L442.271,465L476,465C476.191,467.918 476.191,471.082 476,474L433.752,474Z" style="fill:white;"/>
                </g>
            </g>
        </g>
    </g>
</svg>
